<?xml version="1.0" ?><!DOCTYPE svg  PUBLIC '-//W3C//DTD SVG 1.1//EN'  'http://www.w3.org/Graphics/SVG/1.1/DTD/svg11.dtd'><svg xmlns="http://www.w3.org/2000/svg" xmlns:xlink="http://www.w3.org/1999/xlink" xmlns:serif="http://www.serif.com/" width="100%" height="100%" viewBox="0 0 4000 4000" version="1.1" xml:space="preserve" style="fill-rule:evenodd;clip-rule:evenodd;stroke-linejoin:round;stroke-miterlimit:2;"><g transform="matrix(1,0,0,1,-13875,-23750)"><g transform="matrix(125,0,0,125,0,0)"><path d="M135.467,219C135.396,218.773 135.358,218.532 135.358,218.281C135.358,216.95 136.439,215.869 137.77,215.869C139.102,215.869 140.182,216.95 140.182,218.281C140.182,218.532 140.144,218.773 140.073,219L135.467,219Z"/></g><g transform="matrix(125,0,0,125,0,0)"><path d="M135.155,219L133.982,219C134.112,218.519 134.264,217.508 134.264,217.062C134.264,216.338 134.1,215.652 133.806,215.039C133.983,215.008 134.166,214.991 134.352,214.991C135.194,214.991 135.958,215.329 136.515,215.877C135.65,216.33 135.058,217.237 135.058,218.281C135.058,218.53 135.092,218.771 135.155,219Z"/></g><g transform="matrix(11.2935,-5.40061,5.40061,11.2935,2451.76,30626.3)"><path d="M1006.66,84.267C1012.38,97.299 1016.02,116.936 1016.02,138.884C1016.02,160.832 1012.38,180.469 1006.66,193.502C1000.93,180.469 997.288,160.832 997.288,138.884C997.288,116.936 1000.93,97.299 1006.66,84.267Z"/></g><g transform="matrix(125,0,0,125,0,0)"><path d="M117.139,212.481C117.009,210.793 117.124,209.278 117.433,208.17C118.185,209.381 118.823,211.277 119.133,213.453C119.385,215.229 119.376,216.887 119.155,218.182C118.979,216.843 118.481,215.204 117.681,213.531C117.507,213.168 117.326,212.818 117.139,212.481Z"/></g><g transform="matrix(125,0,0,125,0,0)"><path d="M116.977,217.233C117.472,217.935 117.981,218.534 118.476,219L117.291,219C117.115,218.437 117.007,217.845 116.977,217.233Z"/></g><g transform="matrix(125,0,0,125,0,0)"><path d="M119.122,211.758C120.411,210.5 122.173,209.723 124.115,209.723C128.06,209.723 131.263,212.926 131.263,216.871C131.263,217.612 131.15,218.327 130.94,219L119.321,219C119.321,219 119.428,218.366 119.451,218.233C119.676,216.912 119.687,215.221 119.43,213.41C119.348,212.838 119.244,212.285 119.122,211.758Z"/></g><g transform="matrix(125,0,0,125,0,0)"><path d="M130.305,212.73C132.381,213.079 133.964,214.887 133.964,217.062C133.964,217.517 133.799,218.586 133.67,219L131.253,219C131.455,218.325 131.563,217.61 131.563,216.871C131.563,215.339 131.099,213.914 130.305,212.73Z"/></g><g transform="matrix(17.4525,-10.0762,5.11524,8.85985,10994,26602.4)"><path d="M215.564,119.168L215.564,224.406" style="fill:none;"/></g><g transform="matrix(17.4525,-10.0762,5.11524,8.85985,10994,26602.4)"><path d="M214.944,119.168L214.944,224.406C214.944,225.08 215.222,225.628 215.564,225.628C215.906,225.628 216.184,225.08 216.184,224.406L216.184,119.168C216.184,118.494 215.906,117.947 215.564,117.947C215.222,117.947 214.944,118.494 214.944,119.168Z"/></g><g transform="matrix(20.1155,1.21956,-0.895133,14.7644,12652.1,23323.6)"><path d="M215.564,119.168L215.564,224.406" style="fill:none;"/></g><g transform="matrix(20.1155,1.21956,-0.895133,14.7644,12652.1,23323.6)"><path d="M214.944,119.168L214.944,224.406C214.944,224.872 215.222,225.251 215.564,225.251C215.906,225.251 216.184,224.872 216.184,224.406L216.184,119.168C216.184,118.702 215.906,118.323 215.564,118.323C215.222,118.323 214.944,118.702 214.944,119.168Z"/></g><g transform="matrix(125,0,0,125,0,0)"><path d="M118.935,196.977C119.905,196.416 121.148,196.749 121.708,197.72C122.268,198.69 121.935,199.932 120.965,200.493C119.995,201.053 118.752,200.72 118.192,199.75C117.632,198.779 117.965,197.537 118.935,196.977ZM135.423,196.184C136.347,196.24 137.052,197.035 136.996,197.959C136.94,198.883 136.144,199.588 135.22,199.532C134.296,199.476 133.591,198.68 133.647,197.756C133.703,196.832 134.499,196.128 135.423,196.184Z"/></g><g transform="matrix(125,0,0,125,0,0)"><path d="M118.799,200.761C119.157,200.963 119.564,201.069 119.976,201.065C120.079,201.951 120.148,203.006 119.995,203.579C119.813,204.258 119.113,204.662 118.434,204.48C117.754,204.298 117.35,203.599 117.532,202.919C117.685,202.349 118.269,201.475 118.799,200.761ZM121.599,200.382C122.299,200.936 123.096,201.634 123.392,202.147C123.744,202.757 123.535,203.537 122.926,203.889C122.317,204.241 121.536,204.032 121.184,203.422C120.888,202.908 120.682,201.869 120.552,200.986C120.745,200.934 120.934,200.857 121.115,200.752C121.296,200.648 121.458,200.523 121.599,200.382ZM134.688,199.731C134.851,199.786 135.023,199.821 135.202,199.831C135.381,199.842 135.556,199.829 135.724,199.794C135.948,200.485 136.168,201.301 136.139,201.778C136.104,202.359 135.604,202.801 135.024,202.766C134.444,202.731 134.001,202.231 134.036,201.651C134.065,201.173 134.382,200.39 134.688,199.731ZM117.703,199.354C117.755,199.541 117.831,199.724 117.932,199.9C118.044,200.093 118.179,200.264 118.332,200.412C117.781,201.108 117.09,201.894 116.58,202.189C115.971,202.54 115.191,202.331 114.839,201.722C114.487,201.113 114.696,200.332 115.306,199.981C115.812,199.688 116.828,199.484 117.703,199.354ZM136.967,198.955C137.611,199.283 138.337,199.702 138.653,200.059C139.038,200.494 138.998,201.16 138.563,201.545C138.128,201.931 137.461,201.89 137.076,201.455C136.759,201.097 136.429,200.32 136.18,199.639C136.498,199.485 136.771,199.248 136.967,198.955ZM133.556,198.748C133.715,199.063 133.957,199.331 134.254,199.522C133.924,200.169 133.503,200.9 133.145,201.217C132.71,201.602 132.044,201.562 131.659,201.127C131.273,200.692 131.314,200.025 131.749,199.64C132.105,199.324 132.876,198.996 133.556,198.748ZM122.28,198.751C123.164,198.649 124.213,198.58 124.783,198.733C125.462,198.915 125.866,199.615 125.684,200.294C125.502,200.974 124.802,201.378 124.123,201.196C123.55,201.042 122.671,200.454 121.955,199.922C122.164,199.567 122.277,199.162 122.28,198.751ZM137.261,197.47C137.945,197.249 138.744,197.036 139.214,197.065C139.795,197.1 140.237,197.6 140.202,198.18C140.167,198.76 139.667,199.203 139.087,199.167C138.613,199.139 137.839,198.827 137.184,198.523C137.245,198.351 137.284,198.168 137.295,197.978C137.306,197.804 137.293,197.633 137.261,197.47ZM117.62,198.777C116.743,198.877 115.712,198.942 115.149,198.791C114.469,198.609 114.065,197.909 114.248,197.23C114.43,196.55 115.129,196.146 115.809,196.328C116.37,196.479 117.225,197.046 117.932,197.569C117.721,197.935 117.613,198.354 117.62,198.777ZM133.393,198.293C132.706,198.516 131.899,198.732 131.426,198.703C130.845,198.668 130.403,198.168 130.438,197.588C130.473,197.008 130.973,196.565 131.553,196.6C132.024,196.629 132.791,196.937 133.443,197.239C133.391,197.397 133.359,197.564 133.348,197.738C133.336,197.929 133.352,198.115 133.393,198.293ZM121.61,197.099C122.16,196.406 122.845,195.628 123.351,195.335C123.961,194.984 124.741,195.193 125.093,195.802C125.444,196.411 125.235,197.192 124.626,197.543C124.116,197.838 123.09,198.043 122.212,198.172C122.16,197.966 122.08,197.763 121.968,197.57C121.867,197.394 121.746,197.236 121.61,197.099ZM118.285,197.104C117.597,196.556 116.829,195.879 116.539,195.376C116.187,194.767 116.397,193.987 117.006,193.635C117.615,193.283 118.395,193.492 118.747,194.102C119.037,194.604 119.24,195.607 119.371,196.477C119.17,196.529 118.973,196.608 118.785,196.717C118.597,196.825 118.43,196.956 118.285,197.104ZM136.407,196.205C136.733,195.569 137.144,194.861 137.495,194.551C137.93,194.166 138.596,194.206 138.981,194.641C139.367,195.076 139.326,195.742 138.891,196.128C138.539,196.44 137.782,196.764 137.108,197.011C136.953,196.684 136.709,196.404 136.407,196.205ZM133.65,196.801C133.011,196.475 132.299,196.061 131.987,195.709C131.602,195.274 131.642,194.608 132.077,194.223C132.512,193.837 133.178,193.878 133.564,194.313C133.874,194.663 134.197,195.415 134.444,196.086C134.119,196.247 133.844,196.495 133.65,196.801ZM119.95,196.405C119.85,195.53 119.787,194.506 119.937,193.945C120.119,193.265 120.818,192.862 121.498,193.044C122.178,193.226 122.582,193.925 122.399,194.605C122.248,195.168 121.677,196.028 121.151,196.738C120.789,196.52 120.372,196.405 119.95,196.405ZM134.901,195.926C134.682,195.246 134.473,194.456 134.501,193.989C134.536,193.409 135.036,192.967 135.616,193.002C136.196,193.037 136.639,193.537 136.603,194.117C136.575,194.584 136.272,195.342 135.973,195.991C135.805,195.932 135.627,195.896 135.441,195.884C135.255,195.873 135.074,195.888 134.901,195.926Z"/></g><g transform="matrix(125,0,0,125,0,0)"><path d="M118.848,200.674C118.805,200.649 118.749,200.66 118.719,200.701C118.18,201.426 117.591,202.314 117.436,202.893C117.239,203.626 117.675,204.38 118.408,204.577C119.141,204.773 119.895,204.338 120.091,203.605C120.247,203.023 120.18,201.952 120.075,201.053C120.069,201.002 120.026,200.964 119.975,200.965C119.581,200.968 119.191,200.868 118.848,200.674ZM118.828,200.89C119.155,201.06 119.518,201.154 119.886,201.164C119.982,202.018 120.044,203.008 119.898,203.553C119.73,204.179 119.086,204.551 118.46,204.384C117.833,204.216 117.461,203.571 117.629,202.945C117.774,202.402 118.319,201.58 118.828,200.89L118.828,200.89ZM121.661,200.303C121.621,200.272 121.564,200.275 121.528,200.311C121.393,200.446 121.238,200.566 121.065,200.666C120.892,200.766 120.711,200.84 120.526,200.889C120.477,200.903 120.446,200.95 120.453,201.001C120.585,201.897 120.797,202.951 121.098,203.472C121.477,204.129 122.319,204.355 122.976,203.975C123.633,203.596 123.858,202.755 123.479,202.097C123.178,201.576 122.371,200.865 121.661,200.303ZM121.605,200.514C122.278,201.051 123.023,201.708 123.306,202.197C123.63,202.759 123.437,203.478 122.876,203.802C122.314,204.126 121.595,203.934 121.271,203.372C120.988,202.883 120.792,201.909 120.664,201.058C120.835,201.005 121.003,200.933 121.165,200.839C121.327,200.746 121.474,200.636 121.605,200.514ZM134.72,199.637C134.672,199.62 134.619,199.643 134.598,199.689C134.286,200.36 133.966,201.158 133.937,201.645C133.898,202.28 134.383,202.827 135.018,202.866C135.653,202.904 136.2,202.42 136.239,201.784C136.268,201.298 136.047,200.466 135.819,199.763C135.803,199.715 135.753,199.686 135.703,199.696C135.544,199.729 135.378,199.742 135.208,199.732C135.038,199.721 134.875,199.689 134.72,199.637ZM134.742,199.853C134.887,199.895 135.039,199.922 135.196,199.931C135.353,199.941 135.507,199.933 135.656,199.908C135.866,200.568 136.066,201.322 136.039,201.772C136.007,202.297 135.555,202.698 135.03,202.666C134.505,202.634 134.104,202.182 134.136,201.657C134.164,201.207 134.453,200.482 134.742,199.853L134.742,199.853ZM117.8,199.327C117.786,199.279 117.739,199.248 117.689,199.255C116.801,199.387 115.77,199.597 115.256,199.894C114.598,200.273 114.373,201.115 114.752,201.772C115.132,202.429 115.973,202.655 116.63,202.275C117.148,201.976 117.851,201.181 118.411,200.474C118.443,200.434 118.439,200.376 118.402,200.34C118.255,200.199 118.126,200.035 118.019,199.85C117.922,199.682 117.849,199.506 117.8,199.327ZM117.632,199.466C117.684,199.631 117.755,199.793 117.846,199.95C117.946,200.124 118.065,200.281 118.199,200.42C117.665,201.087 117.016,201.822 116.53,202.102C115.969,202.426 115.25,202.233 114.926,201.672C114.601,201.11 114.794,200.391 115.356,200.067C115.838,199.789 116.791,199.594 117.632,199.466L117.632,199.466ZM137.012,198.865C136.967,198.842 136.912,198.857 136.884,198.899C136.697,199.178 136.439,199.403 136.137,199.549C136.091,199.571 136.069,199.625 136.087,199.673C136.34,200.367 136.678,201.157 137.001,201.521C137.423,201.998 138.153,202.042 138.629,201.62C139.105,201.198 139.15,200.469 138.728,199.992C138.406,199.629 137.668,199.2 137.012,198.865ZM136.999,199.083C137.611,199.399 138.281,199.789 138.578,200.125C138.927,200.519 138.89,201.122 138.496,201.47C138.103,201.819 137.5,201.783 137.151,201.389C136.852,201.052 136.545,200.336 136.305,199.688C136.578,199.54 136.815,199.333 136.999,199.083L136.999,199.083ZM133.645,198.703C133.622,198.657 133.569,198.636 133.522,198.654C132.83,198.907 132.045,199.244 131.682,199.565C131.206,199.987 131.162,200.717 131.584,201.193C132.006,201.669 132.735,201.714 133.212,201.292C133.576,200.969 134.007,200.226 134.343,199.567C134.366,199.522 134.351,199.466 134.308,199.438C134.026,199.256 133.796,199.002 133.645,198.703ZM133.509,198.872C133.66,199.142 133.871,199.376 134.124,199.555C133.808,200.17 133.416,200.843 133.079,201.142C132.685,201.491 132.082,201.454 131.733,201.06C131.385,200.667 131.421,200.064 131.815,199.715C132.151,199.418 132.862,199.111 133.509,198.872L133.509,198.872ZM122.269,198.652C122.218,198.657 122.18,198.7 122.18,198.75C122.177,199.144 122.069,199.531 121.869,199.871C121.843,199.915 121.854,199.971 121.895,200.002C122.622,200.542 123.516,201.136 124.097,201.292C124.83,201.489 125.584,201.053 125.781,200.32C125.977,199.587 125.541,198.833 124.809,198.636C124.23,198.481 123.165,198.548 122.269,198.652ZM122.378,198.84C123.229,198.745 124.214,198.684 124.757,198.83C125.383,198.997 125.755,199.642 125.588,200.268C125.42,200.895 124.775,201.267 124.149,201.099C123.603,200.953 122.777,200.404 122.086,199.894C122.261,199.57 122.361,199.209 122.378,198.84ZM137.23,197.375C137.182,197.391 137.153,197.44 137.163,197.49C137.194,197.645 137.205,197.806 137.195,197.971C137.184,198.153 137.148,198.327 137.09,198.489C137.072,198.538 137.095,198.592 137.142,198.614C137.809,198.923 138.598,199.238 139.081,199.267C139.716,199.306 140.263,198.821 140.302,198.186C140.34,197.551 139.856,197.004 139.22,196.965C138.741,196.936 137.926,197.15 137.23,197.375ZM137.374,197.539C138.026,197.332 138.765,197.138 139.208,197.165C139.733,197.197 140.134,197.649 140.102,198.174C140.07,198.699 139.618,199.099 139.093,199.068C138.647,199.041 137.932,198.756 137.307,198.47C137.355,198.315 137.385,198.152 137.395,197.984C137.404,197.832 137.397,197.683 137.374,197.539ZM117.632,198.876C117.683,198.87 117.721,198.826 117.72,198.775C117.713,198.37 117.817,197.97 118.019,197.619C118.044,197.575 118.033,197.519 117.992,197.489C117.274,196.958 116.404,196.384 115.835,196.232C115.102,196.035 114.347,196.471 114.151,197.204C113.955,197.937 114.39,198.691 115.123,198.888C115.695,199.041 116.741,198.978 117.632,198.876ZM133.423,198.388C133.473,198.372 133.501,198.322 133.49,198.271C133.452,198.102 133.437,197.926 133.448,197.744C133.458,197.579 133.489,197.42 133.538,197.27C133.554,197.222 133.531,197.169 133.485,197.148C132.821,196.84 132.039,196.53 131.559,196.501C130.924,196.462 130.377,196.947 130.338,197.582C130.3,198.217 130.784,198.764 131.419,198.803C131.902,198.832 132.724,198.615 133.423,198.388ZM117.52,198.687C116.677,198.78 115.711,198.838 115.175,198.694C114.549,198.527 114.176,197.882 114.344,197.256C114.512,196.629 115.157,196.257 115.783,196.425C116.317,196.568 117.12,197.097 117.802,197.598C117.625,197.934 117.528,198.307 117.52,198.687ZM133.277,198.225C132.622,198.434 131.877,198.63 131.432,198.603C130.906,198.571 130.506,198.119 130.538,197.594C130.57,197.069 131.022,196.668 131.547,196.7C131.99,196.727 132.7,197.009 133.322,197.293C133.283,197.434 133.257,197.581 133.248,197.732C133.238,197.901 133.248,198.066 133.277,198.225ZM121.531,197.036C121.5,197.076 121.503,197.133 121.538,197.169C121.669,197.301 121.784,197.451 121.881,197.62C121.988,197.805 122.066,197.999 122.115,198.197C122.127,198.247 122.175,198.279 122.226,198.271C123.118,198.14 124.159,197.929 124.676,197.63C125.333,197.251 125.559,196.409 125.179,195.752C124.8,195.095 123.958,194.869 123.301,195.249C122.787,195.546 122.09,196.333 121.531,197.036ZM121.742,197.093C122.274,196.428 122.919,195.7 123.401,195.422C123.963,195.098 124.682,195.29 125.006,195.852C125.33,196.413 125.138,197.133 124.576,197.457C124.091,197.737 123.13,197.932 122.285,198.06C122.232,197.875 122.155,197.694 122.055,197.52C121.964,197.363 121.859,197.221 121.742,197.093ZM118.223,197.182C118.263,197.214 118.32,197.211 118.356,197.174C118.495,197.032 118.655,196.907 118.835,196.803C119.015,196.699 119.203,196.623 119.396,196.574C119.445,196.561 119.477,196.513 119.47,196.462C119.337,195.579 119.128,194.561 118.834,194.052C118.454,193.395 117.613,193.169 116.956,193.548C116.299,193.928 116.073,194.769 116.453,195.426C116.747,195.936 117.524,196.626 118.223,197.182ZM136.318,196.16C136.295,196.205 136.309,196.261 136.352,196.289C136.639,196.478 136.87,196.743 137.018,197.054C137.04,197.101 137.094,197.123 137.143,197.105C137.829,196.853 138.599,196.52 138.957,196.203C139.434,195.781 139.478,195.051 139.056,194.575C138.634,194.098 137.905,194.054 137.428,194.476C137.071,194.792 136.65,195.511 136.318,196.16ZM118.278,196.971C117.619,196.442 116.902,195.804 116.626,195.326C116.302,194.765 116.494,194.046 117.056,193.722C117.617,193.398 118.336,193.59 118.661,194.152C118.936,194.63 119.13,195.569 119.258,196.404C119.079,196.458 118.904,196.533 118.735,196.63C118.566,196.728 118.414,196.842 118.278,196.971ZM133.605,196.891C133.651,196.914 133.707,196.899 133.735,196.855C133.919,196.564 134.18,196.329 134.488,196.176C134.534,196.153 134.555,196.1 134.538,196.052C134.286,195.368 133.955,194.603 133.639,194.246C133.217,193.77 132.487,193.726 132.011,194.148C131.534,194.57 131.49,195.299 131.912,195.776C132.23,196.134 132.954,196.557 133.605,196.891ZM136.536,196.173C136.849,195.569 137.231,194.918 137.561,194.626C137.955,194.277 138.558,194.314 138.906,194.707C139.255,195.101 139.219,195.704 138.825,196.053C138.494,196.346 137.797,196.648 137.158,196.886C137.008,196.604 136.795,196.36 136.536,196.173L136.536,196.173ZM119.85,196.416C119.856,196.466 119.899,196.504 119.95,196.505C120.354,196.505 120.753,196.615 121.1,196.824C121.144,196.85 121.201,196.839 121.232,196.797C121.765,196.077 122.343,195.203 122.496,194.631C122.692,193.898 122.257,193.143 121.524,192.947C120.791,192.751 120.037,193.186 119.84,193.919C119.688,194.489 119.749,195.528 119.85,196.416ZM133.616,196.672C133.011,196.358 132.355,195.974 132.062,195.643C131.713,195.249 131.75,194.646 132.143,194.297C132.537,193.949 133.14,193.985 133.489,194.379C133.781,194.709 134.082,195.402 134.319,196.038C134.04,196.193 133.799,196.41 133.616,196.672ZM120.039,196.306C119.947,195.465 119.89,194.505 120.033,193.971C120.201,193.345 120.846,192.972 121.472,193.14C122.098,193.308 122.471,193.953 122.303,194.579C122.159,195.115 121.627,195.923 121.124,196.607C120.791,196.424 120.419,196.321 120.039,196.306ZM134.805,195.956C134.821,196.005 134.872,196.034 134.922,196.023C135.087,195.987 135.259,195.973 135.435,195.984C135.611,195.995 135.781,196.03 135.94,196.085C135.988,196.102 136.042,196.079 136.064,196.033C136.369,195.372 136.674,194.598 136.703,194.123C136.742,193.488 136.257,192.941 135.622,192.902C134.987,192.864 134.44,193.348 134.401,193.983C134.372,194.459 134.582,195.264 134.805,195.956ZM134.969,195.81C134.764,195.163 134.574,194.434 134.601,193.996C134.633,193.47 135.085,193.07 135.61,193.102C136.135,193.134 136.535,193.586 136.504,194.111C136.477,194.55 136.201,195.25 135.919,195.868C135.769,195.823 135.611,195.794 135.447,195.784C135.284,195.775 135.124,195.784 134.969,195.81Z" style="fill:none;"/></g><g transform="matrix(125,0,0,125,28.9196,23667.5)"><path d="M134.148,24.991C133.855,24.991 132.095,23.888 131.154,21.999C130.173,20.032 129.686,18.084 129.64,16.66C130.72,17.59 131.898,19.207 132.846,21.19C133.486,22.527 133.93,23.84 134.166,24.991L134.148,24.991Z"/></g><g transform="matrix(125,0,0,125,28.9196,23667.5)"><path d="M134.148,25.091L134.166,25.091L134.171,25.091C134.199,25.09 134.225,25.076 134.243,25.055C134.262,25.031 134.27,25.001 134.264,24.971C134.027,23.813 133.58,22.492 132.937,21.146C131.981,19.149 130.794,17.521 129.706,16.584C129.675,16.558 129.633,16.552 129.597,16.57C129.561,16.587 129.539,16.623 129.54,16.663C129.587,18.099 130.076,20.062 131.064,22.044C131.733,23.385 132.808,24.336 133.495,24.786C133.706,24.924 133.883,25.016 134,25.059C134.063,25.082 134.113,25.091 134.148,25.091ZM134.035,24.858L134.022,24.852C133.916,24.807 133.772,24.728 133.604,24.618C132.937,24.181 131.893,23.258 131.243,21.954C130.323,20.109 129.84,18.281 129.752,16.893C130.774,17.835 131.866,19.372 132.756,21.233C133.363,22.503 133.794,23.751 134.035,24.858Z" style="fill:none;"/></g><g transform="matrix(125,0,0,125,26.4516,23667.5)"><path d="M134.088,24.992C134.449,23.844 134.784,22.506 135.601,21.203C136.768,19.341 138.393,17.905 139.572,17.104C139.364,18.514 138.629,20.374 137.461,22.236C136.742,23.383 134.508,24.991 134.148,24.991C134.128,24.991 134.108,24.991 134.088,24.992Z"/></g><g transform="matrix(125,0,0,125,26.4516,23667.5)"><path d="M133.992,24.962C133.983,24.993 133.988,25.026 134.008,25.052C134.027,25.078 134.057,25.092 134.09,25.092C134.109,25.091 134.128,25.091 134.148,25.091C134.189,25.091 134.249,25.077 134.326,25.046C134.47,24.987 134.687,24.865 134.941,24.696C135.777,24.145 137.036,23.102 137.546,22.29C138.722,20.414 139.462,18.539 139.671,17.119C139.677,17.079 139.659,17.04 139.625,17.019C139.592,16.998 139.549,16.999 139.516,17.021C138.328,17.828 136.692,19.275 135.516,21.15C134.694,22.461 134.356,23.807 133.992,24.962ZM134.23,24.87C134.572,23.764 134.909,22.494 135.685,21.257C136.782,19.507 138.286,18.137 139.436,17.321C139.187,18.689 138.473,20.435 137.376,22.183C136.879,22.976 135.647,23.991 134.831,24.529C134.624,24.666 134.444,24.772 134.31,24.835C134.28,24.849 134.254,24.861 134.23,24.87Z" style="fill:none;"/></g><g transform="matrix(76.697,98.7045,-98.7045,76.697,11469.9,15967.8)"><path d="M86.242,23.075C86.242,23.075 85.553,18.52 80.64,17C80.64,17 81.763,22.135 86.242,23.075Z"/></g><g transform="matrix(76.697,98.7045,-98.7045,76.697,11469.9,15967.8)"><path d="M86.221,23.173C86.253,23.179 86.286,23.17 86.31,23.147C86.334,23.125 86.345,23.092 86.34,23.06C86.34,23.06 85.645,18.444 80.669,16.904C80.635,16.894 80.598,16.902 80.572,16.926C80.546,16.95 80.534,16.987 80.542,17.021C80.542,17.021 81.684,22.22 86.221,23.173ZM80.78,17.15L80.78,17.15C84.967,18.534 85.951,22.172 86.115,22.944L80.78,17.15Z" style="fill:none;"/></g><g transform="matrix(8.90635,116.304,-116.304,8.90635,18744.8,15796.1)"><path d="M86.245,23.029C86.245,23.029 85.553,18.52 80.64,17C80.64,17 81.767,22.089 86.245,23.029Z"/></g><g transform="matrix(8.90635,116.304,-116.304,8.90635,18744.8,15796.1)"><path d="M86.223,23.134C86.257,23.142 86.293,23.131 86.319,23.107C86.344,23.083 86.356,23.048 86.351,23.013C86.351,23.013 85.652,18.439 80.671,16.898C80.635,16.886 80.595,16.895 80.567,16.921C80.539,16.947 80.527,16.986 80.535,17.023C80.535,17.023 81.681,22.181 86.223,23.134ZM80.791,17.161L80.791,17.16C84.941,18.538 85.936,22.1 86.109,22.889L80.791,17.161Z" style="fill:none;"/></g><g transform="matrix(32.3524,120.741,120.741,-32.3524,10158,16459.4)"><path d="M86.242,23.075C86.242,23.075 85.553,18.52 80.64,17C80.64,17 81.763,22.135 86.242,23.075Z"/></g><g transform="matrix(32.3524,120.741,120.741,-32.3524,10158,16459.4)"><path d="M86.34,23.06C86.345,23.092 86.334,23.125 86.31,23.147C86.286,23.17 86.253,23.179 86.221,23.173C81.684,22.22 80.542,17.021 80.542,17.021C80.534,16.987 80.546,16.95 80.572,16.926C80.598,16.902 80.635,16.894 80.669,16.904C85.645,18.444 86.34,23.06 86.34,23.06ZM80.78,17.15L80.78,17.15C81.016,18.03 82.294,22.048 86.115,22.944L80.78,17.15Z" style="fill:none;"/></g><g transform="matrix(-31.7949,112.228,112.228,31.7949,16994.2,15615.6)"><path d="M86.336,23.051C86.336,23.051 85.553,18.52 80.64,17C80.64,17 81.857,22.111 86.336,23.051Z"/></g><g transform="matrix(-31.7949,112.228,112.228,31.7949,16994.2,15615.6)"><path d="M86.441,23.033C86.447,23.067 86.436,23.103 86.41,23.128C86.385,23.153 86.348,23.163 86.314,23.156C81.773,22.203 80.535,17.025 80.535,17.025C80.526,16.987 80.538,16.948 80.566,16.922C80.594,16.895 80.635,16.886 80.671,16.898C85.651,18.438 86.441,23.033 86.441,23.033ZM80.794,17.162L80.794,17.162C81.059,18.07 82.411,22.014 86.196,22.91L80.794,17.162Z" style="fill:none;"/></g></g></svg>